<?xml version="1.0" standalone="no"?><!DOCTYPE svg PUBLIC "-//W3C//DTD SVG 1.1//EN" "http://www.w3.org/Graphics/SVG/1.1/DTD/svg11.dtd"><svg t="1492136796143" class="icon" style="" viewBox="0 0 1024 1024" version="1.1" xmlns="http://www.w3.org/2000/svg" p-id="5548" xmlns:xlink="http://www.w3.org/1999/xlink" width="200" height="200"><defs><style type="text/css"></style></defs><path d="M511.946782 213.978335c-83.313275 0-150.861039 67.548787-150.861039 150.866155 0 83.313275 67.542648 150.861039 150.861039 150.861039 83.311229 0 150.865132-67.548787 150.865132-150.861039C662.811914 281.527122 595.25801 213.978335 511.946782 213.978335L511.946782 213.978335zM511.850601 0.443047c-282.645483 0-511.778477 229.132993-511.778477 511.778477 0 282.652646 229.132993 511.778477 511.778477 511.778477 282.64446 0 511.777453-229.126854 511.777453-511.778477C1023.628054 229.57604 794.496084 0.443047 511.850601 0.443047L511.850601 0.443047zM775.957693 817.43477c-11.00864-1.248308-22.739662-18.85763-22.739662-18.85763-20.072172-128.506102-120.312293-226.298721-241.27125-226.298721-120.953841 0-221.193962 97.79262-241.267157 226.298721 0 0-4.621808 17.352498-22.745801 18.85763-42.319673 3.541305-37.222076-18.85763-37.222076-18.85763 3.89431-117.967112 79.759691-218.321831 186.540125-260.936187-55.874042-37.186264-92.744136-100.666797-92.744136-172.796464 0-114.572124 92.87306-207.445184 207.439045-207.445184 114.564962 0 207.436999 92.87306 207.436999 207.445184 0 72.129667-36.863955 135.6102-92.736974 172.796464 106.773272 42.613332 182.644792 142.969075 186.532963 260.936187C813.179769 798.57714 810.561393 821.378194 775.957693 817.43477L775.957693 817.43477zM775.957693 817.43477" p-id="5549" fill="#ffffff"></path></svg>