<?xml version="1.0" standalone="no"?><!DOCTYPE svg PUBLIC "-//W3C//DTD SVG 1.1//EN" "http://www.w3.org/Graphics/SVG/1.1/DTD/svg11.dtd"><svg t="1492235626463" class="icon" style="" viewBox="0 0 1024 1024" version="1.1" xmlns="http://www.w3.org/2000/svg" p-id="2216" xmlns:xlink="http://www.w3.org/1999/xlink" width="200" height="200"><defs><style type="text/css"></style></defs><path d="M686.250667 984.931556a120.135111 120.135111 0 0 1-85.489778-35.399112L252.245333 601.002667a121.173333 121.173333 0 0 1-35.256889-88.96 121.272889 121.272889 0 0 1 35.256889-89.045334L600.775111 74.467556a120.078222 120.078222 0 0 1 85.475556-35.399112c32.298667 0 62.648889 12.572444 85.475555 35.399112 47.132444 47.132444 47.132444 123.832889 0 170.965333L505.159111 512l266.567111 266.552889c47.132444 47.132444 47.132444 123.832889 0 170.965333a120.078222 120.078222 0 0 1-85.475555 35.413334z m0-888.974223a63.630222 63.630222 0 0 0-45.255111 18.730667L299.207111 463.217778c-12.672 12.700444-11.847111 29.639111-11.847111 47.715555v2.147556c0 18.076444-0.824889 35.000889 11.847111 47.687111l345.159111 348.529778c12.088889 12.088889 26.481778 18.730667 43.562667 18.730666 17.109333 0 32.327111-6.656 44.416-18.730666 24.96-24.96 24.533333-65.564444-0.426667-90.524445L445.041778 532.110222a28.444444 28.444444 0 0 1-0.099556-40.220444L731.562667 205.226667a64.099556 64.099556 0 0 0-0.014223-90.524445 63.672889 63.672889 0 0 0-45.297777-18.744889z" fill="#2196F3" p-id="2217"></path></svg>