<?xml version="1.0" standalone="no"?><!DOCTYPE svg PUBLIC "-//W3C//DTD SVG 1.1//EN" "http://www.w3.org/Graphics/SVG/1.1/DTD/svg11.dtd"><svg t="1492344803730" class="icon" style="" viewBox="0 0 1024 1024" version="1.1" xmlns="http://www.w3.org/2000/svg" p-id="5876" xmlns:xlink="http://www.w3.org/1999/xlink" width="200" height="200"><defs><style type="text/css"></style></defs><path d="M190.093453 375.721197l-58.766428 0c-56.510038 0-102.505605 45.99659-102.505605 102.534258l0 407.396617c0 56.538691 45.99659 102.534258 102.505605 102.534258l58.766428 0c56.510038 0 102.506629-45.99659 102.506629-102.534258L292.600081 478.256478C292.600081 421.717787 246.603491 375.721197 190.093453 375.721197zM204.835202 885.652072c0 8.284687-6.484691 14.770402-14.741749 14.770402l-58.766428 0c-8.256034 0-14.741749-6.485715-14.741749-14.770402L116.585275 478.256478c0-8.284687 6.485715-14.770402 14.741749-14.770402l58.766428 0c8.256034 0 14.741749 6.485715 14.741749 14.770402L204.835202 885.652072z" p-id="5877" fill="#707070"></path><path d="M978.802612 587.990718c-1.228991-2.313695-1.571798-3.685949-1.599428-4.856611l4.113691-15.398712c3.399423-10.17064 10.999518-34.025954 11.342326-62.594617 2.142803-28.083615-7.485485-55.910381-26.39823-76.336596-18.912745-20.398586-45.853327-32.111349-73.879638-32.111349L709.309808 396.692834c-2.943029 0-11.827373-8.42795-11.827373-20.85498 0.057305-6.856152 7.199982-28.740578 12.428054-44.738947 11.941983-36.482913 28.28316-86.449931 30.540573-140.617621 2.142803-52.595892-10.970866-94.050026-39.025828-123.275651-23.541159-24.512277-57.310264-38.597063-92.678796-38.597063-13.284561 0-32.140001 2.028193-48.681746 13.284561-23.826662 18.198477-31.312146 39.625486-33.026184 45.73974l-1.656733 5.856381 0 83.879386c0 30.626531-14.655791 69.594031-42.367947 112.704898-15.85613 24.65554-48.424896 75.336826-70.022797 99.734492l-8.284687 7.256264c-12.541641 11.17041-29.740348 26.455535-39.225373 26.455535l-43.88244 0 0 518.758937 22.769586 12.484336c2.485611 1.37123 61.795415 33.397644 148.473543 33.397644l287.919479 0.028653c21.883403 0 76.537164-4.314259 111.220081-44.13929 14.542204-16.683984 30.397311-45.62513 26.798343-90.564645 2.571568-2.742461 5.999644-6.056949 8.571213-8.571213 20.712741-20.084431 59.281151-57.481156 41.881876-114.819049-3.142573-10.342556-2.114151-12.056594 6.028297-25.341155C988.373595 683.297364 1010.371608 647.356804 978.802612 587.990718z" p-id="5878" fill="#707070"></path></svg>