<?xml version="1.0" standalone="no"?><!DOCTYPE svg PUBLIC "-//W3C//DTD SVG 1.1//EN" "http://www.w3.org/Graphics/SVG/1.1/DTD/svg11.dtd"><svg t="1491974823280" class="icon" style="" viewBox="0 0 1024 1024" version="1.1" xmlns="http://www.w3.org/2000/svg" p-id="2563" xmlns:xlink="http://www.w3.org/1999/xlink" width="64" height="64"><defs><style type="text/css"></style></defs><path d="M594.917478 144.398738c0-43.803645-37.123502-79.478146-82.916455-79.478146-45.699832 0-82.918501 35.585473-82.918501 79.478146 0 4.472871 0.38681 8.860808 1.12973 13.133112-114.497731 38.254256-208.430076 155.73083-208.430076 294.718325l0 109.423155c0 0 0 157.590178-40.387849 158.963455-24.082488 0-42.528606 17.792225-42.528606 39.74112 0 22.098297 18.557658 39.737026 41.452087 39.737026l663.36643 0c23.004947 0 41.451064-17.791202 41.451064-39.737026 0-22.103414-18.557658-39.74112-41.451064-39.74112-41.46539 0-41.46539-157.854191-41.46539-157.854191L802.218848 452.263477c0-139.166573-87.828324-256.691243-208.408587-294.828842C594.538855 153.190985 594.917478 148.838863 594.917478 144.398738zM636.377752 839.789535c-0.12382 65.903989-55.286164 119.28885-124.377752 119.28885-68.616774 0-124.254955-53.163827-124.378775-119.28885L636.377752 839.789535z" p-id="2564" fill="#ffffff"></path></svg>