<?xml version="1.0" standalone="no"?><!DOCTYPE svg PUBLIC "-//W3C//DTD SVG 1.1//EN" "http://www.w3.org/Graphics/SVG/1.1/DTD/svg11.dtd"><svg t="1492139790836" class="icon" style="" viewBox="0 0 1024 1024" version="1.1" xmlns="http://www.w3.org/2000/svg" p-id="11639" xmlns:xlink="http://www.w3.org/1999/xlink" width="200" height="200"><defs><style type="text/css"></style></defs><path d="M611.235119 857.005638l0.277316-40.678468c141.845589-32.552393 242.72209-156.488077 242.928798-303.659975 0.208754-147.999752-104.060007-275.822976-242.928798-303.659975l-0.277316-40.672328c160.195515 24.407899 283.693224 168.483272 283.693224 344.332303C894.929366 688.522366 771.430634 832.599785 611.235119 857.005638zM479.736179 816.633139 247.12026 654.374638l-60.7322 0c-27.936259 0-60.7322-32.748868-60.7322-60.7322L125.655861 431.69093c0-27.977191 32.794917-60.7322 60.7322-60.7322l60.7322 0 232.615918-162.248268c27.936259 0 50.582025 22.683628 50.582025 50.658773l0 506.601036C530.318204 793.94951 507.673461 816.633139 479.736179 816.633139zM246.956531 457.07097c0-13.94971-12.006452-25.260314-26.811646-25.260314l-6.692423 0c-14.806217 0-26.809599 11.310603-26.809599 25.260314L186.642864 568.265468c0 13.951757 12.002358 25.260314 26.809599 25.260314l6.692423 0c14.804171 0 26.811646-11.308557 26.811646-25.260314L246.956531 457.07097zM469.968721 674.789597 469.968721 331.180771c0-20.045545 0-11.631922 0-41.123606l-161.948439 116.069529c0 18.286482-0.086981 17.22736-0.086981 21.218254 0 1.730411 0 2.597151 0 2.851954 0 1.210571 0 2.731204 0 5.051039l0 154.842601 0.086981 29.119201 161.948439 116.073622C469.968721 708.058304 469.968721 694.833095 469.968721 674.789597zM732.976834 512.667196c0 86.747713-41.36613 149.911288-121.464399 161.950486l0-40.48404c53.952796-11.407817 80.976266-61.914118 80.976266-121.466446 0-59.555397-27.02347-110.058628-80.976266-121.464399l0-40.488133C691.610704 362.749768 732.976834 425.915389 732.976834 512.667196z" p-id="11640" fill="#2196F3"></path></svg>