<?xml version="1.0" standalone="no"?><!DOCTYPE svg PUBLIC "-//W3C//DTD SVG 1.1//EN" "http://www.w3.org/Graphics/SVG/1.1/DTD/svg11.dtd"><svg t="1492129511141" class="icon" style="" viewBox="0 0 1024 1024" version="1.1" xmlns="http://www.w3.org/2000/svg" p-id="3499" xmlns:xlink="http://www.w3.org/1999/xlink" width="200" height="200"><defs><style type="text/css"></style></defs><path d="M293.276998 598.479607l50.894134 0 0 142.504598 34.631752 0L378.802884 598.479607l50.777477 0 0-29.014824L293.276998 569.464783 293.276998 598.479607zM370.051569 473.431589l164.372651-159.360498 164.393117 159.360498 15.537881-13.945617L549.373701 299.575959l4.108574-3.982708-15.514345-13.922081-3.532453 3.425006-3.533476-3.425006-15.537881 13.922081 4.118807 3.992941L354.513688 459.484949 370.051569 473.431589zM522.430048 90.190115c-238.20931 0-431.303097 193.09481-431.303097 431.303097s193.09481 431.30412 431.303097 431.30412c238.20931 0 431.303097-193.09481 431.303097-431.30412S760.639359 90.190115 522.430048 90.190115zM522.430048 928.836617c-224.964658 0-407.342382-182.377724-407.342382-407.342382S297.46539 114.151853 522.430048 114.151853c224.965681 0 407.342382 182.377724 407.342382 407.342382S747.39573 928.836617 522.430048 928.836617zM527.859711 566.53915c-13.970176 0-26.278503 2.245134-36.972053 6.785543-8.025791 3.347235-15.420201 8.494465-22.183232 15.443737-6.738471 6.92676-12.050454 14.766308-15.95846 23.5166-5.217838 11.839653-7.838525 26.511817-7.838525 43.99091 0 27.284413 7.534604 48.718585 22.580275 64.278979 15.045671 15.560394 35.33374 23.352871 60.839647 23.352871 25.200962 0 45.325301-7.816013 60.370972-23.470551 15.045671-15.631002 22.580275-37.299511 22.580275-64.980967 0-27.939329-7.581676-49.724495-22.76754-65.402569C573.347718 574.377676 553.130258 566.53915 527.859711 566.53915zM562.186518 699.378621c-8.845459 9.94449-20.170388 14.929014-33.975812 14.929014s-25.201985-5.008061-34.164101-15.045671c-8.962116-10.015098-13.45443-24.733311-13.45443-44.154639 0-19.74981 4.375657-34.491559 13.104459-44.295855 8.727779-9.781784 20.239973-14.672164 34.515095-14.672164 14.273075 0 25.716708 4.820796 34.326806 14.508435 8.634658 9.664104 12.94073 24.335245 12.94073 43.99091C575.477218 674.528654 571.055512 689.434132 562.186518 699.378621zM735.063867 572.037375c-6.388501-1.731434-20.12434-2.573615-41.183981-2.573615l-55.574736 0 0 171.519422 34.631752 0 0-64.700581 22.580275 0c15.678074 0 27.65792-0.819668 35.919071-2.456958 6.083555-1.334391 12.075013-4.048199 17.947767-8.143471 5.897314-4.094248 10.764158-9.733689 14.57802-16.894785 3.814886-7.18361 5.733585-16.028045 5.733585-26.557866 0-13.665231-3.322675-24.780383-9.945513-33.415041C753.128291 580.203358 744.891699 574.612013 735.063867 572.037375zM730.079342 636.035968c-2.597151 3.814886-6.201236 6.621814-10.810207 8.422833-4.609994 1.778506-13.735839 2.691295-27.377534 2.691295l-18.953677 0 0-48.671513 16.731056 0c12.472056 0 20.779256 0.37453 24.921599 1.170662 5.615904 1.004887 10.249435 3.532453 13.922081 7.605212 3.673669 4.048199 5.499248 9.195429 5.499248 15.443737C734.010885 627.752304 732.701053 632.198569 730.079342 636.035968z" p-id="3500" fill="#1296db"></path></svg>