<?xml version="1.0" standalone="no"?><!DOCTYPE svg PUBLIC "-//W3C//DTD SVG 1.1//EN" "http://www.w3.org/Graphics/SVG/1.1/DTD/svg11.dtd"><svg t="1491974750772" class="icon" style="" viewBox="0 0 1229 1024" version="1.1" xmlns="http://www.w3.org/2000/svg" p-id="1849" xmlns:xlink="http://www.w3.org/1999/xlink" width="76.8125" height="64"><defs><style type="text/css"></style></defs><path d="M0 1024C0 1024 0 877.714286 0 877.714286 0 877.714286 1228.8 877.714286 1228.8 877.714286 1228.8 877.714286 1228.8 1024 1228.8 1024 1228.8 1024 0 1024 0 1024ZM0 438.857143C0 438.857143 1228.8 438.857143 1228.8 438.857143 1228.8 438.857143 1228.8 585.142857 1228.8 585.142857 1228.8 585.142857 0 585.142857 0 585.142857 0 585.142857 0 438.857143 0 438.857143ZM0 0C0 0 1228.8 0 1228.8 0 1228.8 0 1228.8 146.285714 1228.8 146.285714 1228.8 146.285714 0 146.285714 0 146.285714 0 146.285714 0 0 0 0Z" p-id="1850" fill="#ffffff"></path></svg>