<svg x="0" y="0" width="300" height="300" version="1.1" xmlns="http://www.w3.org/2000/svg" xmlns:xlink="http://www.w3.org/1999/xlink"><g transform="translate(6,185.38945) scale(0.88807,0.88807)" data-paper-data="{&quot;description&quot;:&quot;Logo for CNode\n==============\n\nThis logo was generated by MarkMaker and is composed of elements designed by others.\n\nThe font is Halant Bold designed by Indian Type Foundry and released under the OFL license via Google Fonts: https://www.google.com/fonts/specimen/Halant. The font includes this copyright statement: Copyright (c) 2014 Indian Type Foundry (info@indiantypefoundry.com)\n\nMarkMaker uses semantic data from the Princeton University WordNet database http://wordnet.princeton.edu and font descriptions from Google Fonts https://www.google.com/fonts.\n\nThis design is inspired by designs that past users of MarkMaker have liked. As a result, it may be visually similar to past or future designs generated by the system. There is no guarantee that it is unique, original, or suitable in any way for use as a logo.\n\n&quot;}" fill="#008fee" stroke="none" stroke-width="1" stroke-linecap="butt" stroke-linejoin="miter" stroke-miterlimit="10" stroke-dasharray="" stroke-dashoffset="0" font-family="sans-serif" font-weight="normal" font-size="12" text-anchor="start" mix-blend-mode="normal"><g data-paper-data="{&quot;elementType&quot;:&quot;logo&quot;}"><g data-paper-data="{&quot;elementType&quot;:&quot;text&quot;}"><g transform="translate(-47.58756,-100)" data-paper-data="{&quot;baseline&quot;:76.5,&quot;elementType&quot;:&quot;row&quot;}"><g transform="translate(42.58756,0)" data-paper-data="{&quot;baselineProportion&quot;:1.043656207366985,&quot;fontSize&quot;:100,&quot;baseline&quot;:76.5,&quot;elementType&quot;:&quot;word&quot;}"><path d="M36.3,96.8c-8.53333,0 -15.88333,-2.91667 -22.05,-8.75c-6.16667,-5.83333 -9.25,-14 -9.25,-24.5c0,-10.5 3.33333,-18.86667 10,-25.1c6.66667,-6.23333 14.96667,-9.35 24.9,-9.35c8.66667,0 15.1,1.2 19.3,3.6c-0.26667,5.86667 -1.03333,12.2 -2.3,19c-3.2,0 -4.9,-0.03333 -5.1,-0.1c-0.2,-4.2 -1.35,-7.6 -3.45,-10.2c-2.1,-2.6 -5.35,-3.9 -9.75,-3.9c-4.4,0 -8.25,2.11667 -11.55,6.35c-3.3,4.23333 -4.95,10.4 -4.95,18.5c0,8.1 1.81667,14.15 5.45,18.15c3.63333,4 8.43333,6 14.4,6c5.96667,0 10.98333,-1.43333 15.05,-4.3l3.5,4c-2.8,3.13333 -6.36667,5.68333 -10.7,7.65c-4.33333,1.96667 -8.83333,2.95 -13.5,2.95z" data-paper-data="{&quot;elementType&quot;:&quot;letter&quot;,&quot;baseline&quot;:70.9,&quot;baselineProportion&quot;:1.0472673559822747,&quot;fontSize&quot;:100}"></path><path transform="translate(7,0)" d="M134.5,30.5c0,0.53333 0,1.31667 0,2.35c0,1.03333 -0.16667,2.11667 -0.5,3.25c-2.06667,0.33333 -3.63333,0.91667 -4.7,1.75c-1.06667,0.83333 -1.6,2.25 -1.6,4.25l0,53.4l-6.8,0l-30.5,-38.6l-6.7,-9.6l0,41.5c1.53333,0.66667 3.86667,1 7,1c0.06667,0.4 0.1,1.06667 0.1,2c0,0.93333 -0.16667,2.16667 -0.5,3.7l-22.1,0c0,-0.53333 0,-1.31667 0,-2.35c0,-1.03333 0.16667,-2.15 0.5,-3.35c2.06667,-0.33333 3.63333,-0.91667 4.7,-1.75c1.06667,-0.83333 1.6,-2.25 1.6,-4.25l0,-47.2c-1.46667,-0.4 -3.93333,-0.6 -7.4,-0.6c0.13333,-2.4 0.36667,-4.23333 0.7,-5.5l21.6,0l23.7,30l5.4,7.9l0,-31.2c-1.66667,-0.73333 -4,-1.1 -7,-1.1c0,-0.46667 0,-1.13333 0,-2c0,-0.86667 0.13333,-2.06667 0.4,-3.6l22.1,0z" data-paper-data="{&quot;elementType&quot;:&quot;letter&quot;,&quot;baseline&quot;:69.5,&quot;baselineProportion&quot;:1.0692307692307692,&quot;fontSize&quot;:100}"></path><path transform="translate(14,0)" d="M167.6,48.1c0,0 1.86667,0 5.6,0c3.73333,0 7.91667,2.05 12.55,6.15c4.63333,4.1 6.95,10.13333 6.95,18.1c0,7.96667 -2.33333,14 -7,18.1c-4.66667,4.1 -10.73333,6.15 -18.2,6.15c-7.46667,0 -13.51667,-2.05 -18.15,-6.15c-4.63333,-4.1 -6.95,-10.13333 -6.95,-18.1c0,-7.96667 2.33333,-14 7,-18.1c4.66667,-4.1 10.73333,-6.15 18.2,-6.15z M176.1,74.8c0,-13.2 -3.03333,-19.8 -9.1,-19.8c-5.4,0 -8.1,5.06667 -8.1,15.2c0,0.73333 0,1.46667 0,2.2c0.46667,11.53333 3.56667,17.3 9.3,17.3c2.93333,0 4.98333,-1.28333 6.15,-3.85c1.16667,-2.56667 1.75,-6.25 1.75,-11.05" data-paper-data="{&quot;elementType&quot;:&quot;letter&quot;,&quot;baseline&quot;:51.900000000000006,&quot;baselineProportion&quot;:1.0701030927835053,&quot;fontSize&quot;:100}"></path><path transform="translate(21,0)" d="M240.7,96.8c-4.8,0 -8.36667,-1.63333 -10.7,-4.9c-3.93333,3.13333 -8.28333,4.7 -13.05,4.7c-4.76667,0 -9.2,-1.98333 -13.3,-5.95c-4.1,-3.96667 -6.15,-9.76667 -6.15,-17.4c0,-7.63333 2.73333,-13.73333 8.2,-18.3c5.46667,-4.56667 12.6,-6.85 21.4,-6.85l1.5,0l0,-15.1c-0.73333,-0.13333 -1.71667,-0.2 -2.95,-0.2c-1.23333,0 -2.48333,0.03333 -3.75,0.1c0.13333,-2.4 0.43333,-4.26667 0.9,-5.6c6.53333,-2.26667 13.63333,-3.53333 21.3,-3.8l0,59.2c0,3.26667 1,4.9 3,4.9c0.33333,0 1.56667,-0.2 3.7,-0.6l1.5,3.4c-1.26667,1.4 -2.33333,2.5 -3.2,3.3c-2.26667,2.06667 -5.06667,3.1 -8.4,3.1z M224.2,56c-3.66667,0 -6.28333,1.13333 -7.85,3.4c-1.56667,2.26667 -2.35,6.46667 -2.35,12.6c0,10.26667 2.96667,15.4 8.9,15.4c2.13333,0 4.03333,-0.5 5.7,-1.5l0,-29.5c-1.26667,-0.26667 -2.73333,-0.4 -4.4,-0.4" data-paper-data="{&quot;elementType&quot;:&quot;letter&quot;,&quot;baseline&quot;:76.5,&quot;baselineProportion&quot;:1.043656207366985,&quot;fontSize&quot;:100}"></path><path transform="translate(28,0)" d="M273.2,71.8l0,0.2c0,10.33333 3.86667,15.5 11.6,15.5c4.06667,0 8.7,-1 13.9,-3l2.3,3.6c-5.66667,5.8 -12.53333,8.7 -20.6,8.7c-5.53333,0 -10.73333,-1.86667 -15.6,-5.6c-2.4,-1.8 -4.35,-4.23333 -5.85,-7.3c-1.5,-3.06667 -2.25,-6.5 -2.25,-10.3c0,-7.73333 2.5,-13.91667 7.5,-18.55c5,-4.63333 11.1,-6.95 18.3,-6.95c4.8,0 9,1.33333 12.6,4c4.13333,3 6.2,8.2 6.2,15.6c-0.53333,1.6 -1.2,2.96667 -2,4.1l-26.1,0z M281.3,55.5c-4.2,0 -6.8,3.63333 -7.8,10.9l7.8,-0.6l4.5,-0.2c-0.06667,-6.73333 -1.56667,-10.1 -4.5,-10.1" data-paper-data="{&quot;elementType&quot;:&quot;letter&quot;,&quot;baseline&quot;:51.900000000000006,&quot;baselineProportion&quot;:1.0657084188911705,&quot;fontSize&quot;:100}"></path></g></g></g></g></g></svg>