<?xml version="1.0" standalone="no"?><!DOCTYPE svg PUBLIC "-//W3C//DTD SVG 1.1//EN" "http://www.w3.org/Graphics/SVG/1.1/DTD/svg11.dtd"><svg t="1492139458853" class="icon" style="" viewBox="0 0 1024 1024" version="1.1" xmlns="http://www.w3.org/2000/svg" p-id="9851" xmlns:xlink="http://www.w3.org/1999/xlink" width="200" height="200"><defs><style type="text/css"></style></defs><path d="M407.0912 594.07872c83.75296-34.61632 143.34976-121.04704 143.34976-222.21824 0-131.53792-100.5824-238.53056-224.26112-238.53056-123.68384 0-224.26112 106.98752-224.26112 238.53056 0 101.1712 59.59168 187.60704 143.3088 222.21824-139.4432 38.4-242.90816 172.99456-242.90816 333.1584H47.0016c0-163.77856 125.2096-296.97024 279.17824-296.97024 153.96352 0 279.2192 133.23776 279.2192 296.97024h44.64128c0-160.11776-103.46496-294.7584-242.94912-333.1584zM146.60096 371.86048c0-105.33376 80.6144-191.04768 179.6608-191.04768 98.96448 0 179.57888 85.71392 179.57888 191.04768s-80.57344 191.04256-179.61984 191.04256c-99.00544-0.00512-179.61984-85.7088-179.61984-191.04256zM962.93888 933.7856h-200.77056v-43.2384h200.81664c9.97888 0 18.09408-8.62208 18.09408-19.23584V189.26592c0-10.61888-8.07424-19.24096-18.09408-19.24096H491.1872v-43.2384h471.79776c32.3584 0 58.7008 28.032 58.7008 62.4384v682.12736c0 34.40128-26.3424 62.43328-58.74688 62.43328zM586.752 269.66528h317.36832v49.2288H586.752v-49.2288z m0 153.75872h317.36832v49.22368H586.752v-49.26976 0.04608z m83.50208 163.86048h233.86624v49.26976h-233.86624v-49.26976z" fill="#2196F3" p-id="9852"></path></svg>