<?xml version="1.0" standalone="no"?><!DOCTYPE svg PUBLIC "-//W3C//DTD SVG 1.1//EN" "http://www.w3.org/Graphics/SVG/1.1/DTD/svg11.dtd"><svg t="1492304389988" class="icon" style="" viewBox="0 0 1024 1024" version="1.1" xmlns="http://www.w3.org/2000/svg" p-id="3612" xmlns:xlink="http://www.w3.org/1999/xlink" width="200" height="200"><defs><style type="text/css"></style></defs><path d="M801.28 311.296c-10.24 0-18.944 8.192-18.944 18.944l0 518.656c0 28.672-23.552 52.224-52.224 52.224L221.696 901.12c-28.672 0-52.224-23.552-52.224-52.224L169.472 233.472c0-28.672 23.552-52.224 52.224-52.224l422.4 0c10.24 0 18.944-8.192 18.944-18.944s-8.192-18.944-18.944-18.944L221.696 143.36c-49.152 0-89.6 40.448-89.6 89.6l0 614.912c0 49.664 40.448 89.6 89.6 89.6l508.416 0c49.152 0 89.6-39.936 89.6-89.6L819.712 329.728C820.224 319.488 811.52 311.296 801.28 311.296z" p-id="3613" fill="#2196F3"></path><path d="M475.648 429.056l-204.8 0c-9.728 0-17.92 8.192-17.92 17.92 0 9.728 8.192 17.92 17.92 17.92l204.8 0c9.728 0 17.92-8.192 17.92-17.92C493.056 437.248 485.376 429.056 475.648 429.056z" p-id="3614" fill="#2196F3"></path><path d="M269.312 670.208c0 9.728 8.192 17.92 17.92 17.92l378.368 0c9.728 0 17.92-8.192 17.92-17.92s-8.192-17.92-17.92-17.92L286.72 652.288C276.992 652.288 269.312 659.968 269.312 670.208z" p-id="3615" fill="#2196F3"></path><path d="M886.784 91.136c-7.168-7.168-18.432-7.168-25.088 0L593.92 358.4c-7.168 7.168-7.168 18.432 0 25.088 3.584 3.584 8.192 5.12 12.8 5.12 4.608 0 9.216-1.536 12.8-5.12l267.776-267.776C893.44 109.056 893.44 97.792 886.784 91.136z" p-id="3616" fill="#2196F3"></path></svg>