<?xml version="1.0" standalone="no"?><!DOCTYPE svg PUBLIC "-//W3C//DTD SVG 1.1//EN" "http://www.w3.org/Graphics/SVG/1.1/DTD/svg11.dtd"><svg t="1492139504701" class="icon" style="" viewBox="0 0 1024 1024" version="1.1" xmlns="http://www.w3.org/2000/svg" p-id="10750" xmlns:xlink="http://www.w3.org/1999/xlink" width="200" height="200"><defs><style type="text/css"></style></defs><path d="M300.931259 453.164064c11.498147-2.588106 18.740752-14.014645 16.152646-25.533251-5.442183-24.162476-6.260557-48.979651-2.434661-73.714988 16.684589-108.055983 118.152666-182.374522 226.300716-165.628555 25.502562 3.938422 49.542282 12.592721 71.423542 25.696926 10.15806 6.066193 23.241806 2.77224 29.297769-7.344902 6.045734-10.127371 2.751781-23.241806-7.355131-29.297769-26.658515-15.948052-55.884676-26.474381-86.839652-31.261866-131.2671-20.316121-254.739193 69.981159-275.065544 201.330097-4.62381 30.054765-3.621302 60.201596 2.987063 89.591433 2.230068 9.953467 11.048041 16.694818 20.817374 16.694818C297.780522 453.685777 299.355891 453.491414 300.931259 453.164064zM895.377269 612.429766c0-30.535559-11.989171-57.460045-32.141617-76.088271 20.224054-46.708664 31.578985-98.082057 31.578985-152.104934 0-211.866655-172.359677-384.236561-384.205872-384.236561-211.856425 0-384.226331 172.369906-384.226331 384.236561 0 126.888802 61.981559 239.394691 157.127701 309.39631 0.664928 3.815666 1.54468 7.621103 2.639254 11.39585 3.621302 12.367669 8.62361 23.446399 14.945545 33.052057 34.453522 52.539575 73.500165 112.045554 112.239918 170.058001 39.241007 58.738754 96.036124 95.268898 168.799752 108.557237 9.165783 1.606058 17.543881 2.710862 25.625318 3.744059 3.887274 0.521713 7.784777 1.033196 11.641362 1.575369 3.048441 0.450105 6.137801 0.654699 9.216931 0.654699l43.394252 0c3.406479 0 6.833418-0.235282 10.209209-0.818373 3.815666-0.62401 7.631332-1.207101 11.487917-1.800422 6.567447-1.033196 13.134894-2.066393 19.702341-3.150738 91.923797-15.866215 161.291176-84.998312 176.840271-176.216262 3.181427-18.229268 4.828403-36.714279 4.900011-54.769643 0.214823-68.456938 0.214823-77.03963 0.204593-104.731341C895.35681 666.984586 895.35681 647.660743 895.377269 612.429766zM190.450845 384.226331c0-176.850501 143.348338-320.16815 320.157921-320.16815 176.809582 0 320.157921 143.317649 320.157921 320.16815 0 44.877554-9.401065 87.494351-26.085653 126.264793-2.997293-0.286431-5.994585-0.491024-9.002108-0.491024-9.268079 0-18.311106 1.278709-26.955175 3.713369-9.984156-9.441984-21.922179-16.827804-35.323044-21.431155-2.230068-0.726306-4.449906-1.370776-6.649284-1.953867 10.536558-21.318628 18.17812-44.509286 21.983557-69.265082 8.255342-53.245422-1.145723-106.255562-27.180228-153.332494-5.697925-10.311505-18.689604-14.065794-29.021568-8.357639-10.311505 5.708155-14.045334 18.699833-8.347409 29.021568 21.410695 38.709064 29.144324 82.338598 22.351825 126.131807-4.296461 27.640563-14.219239 52.918073-28.33618 75.095993-1.268479 0.29666-2.598336 0.429646-3.846355 0.777455-8.777055-8.071208-19.313613-14.720492-31.374392-19.784178-9.196472-4.900011-19.497747-7.447198-29.993387-7.447198l-2.15846 0c0-27.507577 0-53.603461-0.030689-74.533361 0-52.007632-34.52513-92.425051-85.949671-100.506488-4.869322-0.767225-9.667036-1.145723-14.372684-1.145723-50.268589 0-94.470984 40.417418-98.511703 90.092686-0.480794 6.383313-0.480794 11.743659-0.480794 16.050349l0 162.580114c-19.937623-11.446999-37.931609-26.280017-52.948762-44.222855-7.549495-9.043027-21.001508-10.250127-30.085454-2.680173-9.032797 7.569954-10.229668 21.042427-2.680173 30.095683 10.424032 12.439276 22.096083 23.589614 34.627426 33.57377-25.952668 6.618595-48.70345 23.190657-62.881769 46.412004-0.552402 0.900211-0.971818 1.84134-1.493532 2.751781C231.226301 563.040929 190.450845 478.441574 190.450845 384.226331zM831.094035 785.699883c-0.071608 14.720492-1.462843 29.645578-3.989571 44.212625-10.976434 64.426449-59.79241 112.679793-124.433682 123.819902-10.15806 1.718584-20.438877 3.242805-30.648085 4.900011-14.47498 0-28.919272 0-43.394252 0-11.631133-1.718584-23.374791-2.935915-34.965005-5.002308-53.337489-9.728414-96.639674-35.578785-127.021788-81.080349-37.665638-56.365471-74.809562-112.955994-111.963717-169.597666-3.140508-4.777255-5.380805-10.331965-7.007323-15.825296-6.945945-23.927194 7.160768-48.662531 30.709463-53.214733 3.416709-0.644469 6.741351-0.992278 9.892089-0.992278 14.311306 0 26.5153 6.46515 35.854986 18.566847 15.569555 20.131987 30.290047 40.918672 45.358348 61.418927 1.585599 2.189149 3.201886 4.357839 4.838633 6.516299 0.388727-0.173904 0.818373-0.29666 1.21733-0.491024 0-1.912948 0-3.836126 0-5.749073 0-93.877664 0-226.17796 0-320.065853 0-3.641762 0-7.242605 0.276201-10.874137 1.381005-16.889182 17.861-31.190258 34.658115-31.190258 1.452613 0 2.956374 0.122756 4.429446 0.358038 19.876245 3.130278 31.844957 16.94033 31.844957 37.266681 0.051148 56.969021 0 152.319757 0.081837 209.339927 0 2.956374 0.194364 6.055963 1.063885 8.858893 1.462843 4.61358 4.94093 7.07893 9.881859 7.457428 0.358038 0 0.705847 0 1.053656 0 4.715877 0 8.204194-2.363053 10.055764-6.587906 1.186641-2.618795 1.258249-5.830911 1.258249-8.817974 0-19.610274-0.051148-25.788993-0.051148-25.788993l-0.071608 18.229268c0-0.061378 0-6.301476 0.051148-25.799223 0-12.879152 4.31692-24.080639 15.272894-31.691512 4.030489-2.751781 8.828204-4.470365 13.25765-6.639055 4.787485 0 9.605658 0 14.393143 0 0.511483 0.368268 0.92067 0.838833 1.473072 1.043426 18.720293 6.444691 27.42574 18.577077 27.42574 38.258958-0.061378 19.313613-0.061378 25.461644-0.061378 25.461644l-0.020459-18.7919c0 0 0 6.178719 0 25.492333 0 1.84134-0.061378 3.621302 0.132986 5.401265 0.777455 6.14803 5.513791 10.229668 11.477688 10.229668 0.388727 0 0.736536 0 1.115034-0.020459 6.311705-0.572861 9.922778-4.879552 10.362654-12.674559 0-0.071608 0-0.132986 0-0.194364 0.030689-0.470565 0.030689-0.961589 0.030689-1.432154 0-5.155753 0-9.083945 0-12.122157 0.276201-8.388328 2.342594-16.295861 7.743859-23.129279 7.08916-8.991878 17.410895-13.88166 28.182735-13.88166 3.907733 0 7.876844 0.654699 11.733429 1.953867 14.7921 5.104604 24.254543 19.446599 24.254543 36.591523-0.020459 19.313613-0.051148 25.482103-0.051148 25.482103-0.01023 0-0.051148-18.81236-0.071608-18.81236 0 0-0.01023 6.14803-0.01023 25.502562 0 2.199379 0 4.429446 0.235282 6.608366 0.705847 5.800222 4.470365 8.797515 9.8614 9.8614 0.552402 0.122756 1.094574 0.163675 1.677666 0.163675 4.255542 0 8.787285-2.966604 10.229668-7.242605 0.92067-2.77224 1.176412-5.8616 1.176412-8.858893 0-2.618795 0-4.879552 0.01023-6.77204 0 5.994585 0 12.981449 0 12.981449 0.071608 0 0.112526-3.887274 0.153445-15.160368 0.071608-6.250327 1.196871-12.920071 3.672451-18.628225 5.636547-12.787085 18.597536-20.520714 31.957483-20.520714 2.46535 0 4.900011 0.286431 7.355131 0.818373 17.318828 3.784977 28.264573 18.48501 28.264573 37.522422C831.24748 715.913088 831.411155 682.144954 831.094035 785.699883z" p-id="10751" fill="#2196F3"></path></svg>