<?xml version="1.0" standalone="no"?><!DOCTYPE svg PUBLIC "-//W3C//DTD SVG 1.1//EN" "http://www.w3.org/Graphics/SVG/1.1/DTD/svg11.dtd"><svg t="1492155843248" class="icon" style="" viewBox="0 0 1024 1024" version="1.1" xmlns="http://www.w3.org/2000/svg" p-id="6166" xmlns:xlink="http://www.w3.org/1999/xlink" width="200" height="200"><defs><style type="text/css"></style></defs><path d="M320.573011 563.720965c-14.97977 0-29.824458-6.461155-40.056916-18.96698-18.076421-22.097274-14.810917-54.680367 7.287262-72.756047l326.815435-267.324418c22.114553-18.074657 54.66521-14.826684 72.758005 7.286963 18.076421 22.098297 14.810917 54.680367-7.286239 72.756047L353.275124 552.041972C343.663838 559.900963 332.084654 563.720965 320.573011 563.720965z" p-id="6167" fill="#ffffff"></path><path d="M647.319881 831.011614c-11.511643 0-23.090827-3.818979-32.701089-11.678994L287.803357 552.041972c-22.097156-18.076704-25.36266-50.658773-7.287262-72.756047 18.059024-22.079878 50.642429-25.361621 72.759028-7.287987l326.815435 267.291672c22.097156 18.075681 25.36266 50.65775 7.286239 72.756047C677.160713 824.533063 662.299651 831.011614 647.319881 831.011614z" p-id="6168" fill="#ffffff"></path></svg>