<?xml version="1.0" standalone="no"?><!DOCTYPE svg PUBLIC "-//W3C//DTD SVG 1.1//EN" "http://www.w3.org/Graphics/SVG/1.1/DTD/svg11.dtd"><svg t="1492324973034" class="icon" style="" viewBox="0 0 1024 1024" version="1.1" xmlns="http://www.w3.org/2000/svg" p-id="4722" xmlns:xlink="http://www.w3.org/1999/xlink" width="200" height="200"><defs><style type="text/css"></style></defs><path d="M935.23535 325.31211c-0.735757-15.471366-6.258541-38.702464-11.975752-56.434314-15.652492-48.543599-39.016619-81.516572-55.861262-100.629885-21.007453-23.837918-45.874817-42.575678-73.91136-55.694463-32.275077-15.101953-68.817342-22.759353-108.612697-22.759353l-0.170892 0c-56.713676 0.030699-109.705588 20.546965-149.21544 57.766658-8.758478 8.249895-16.671705 17.155728-23.693632 26.612101C473.027383 122.349559 411.342486 88.769766 342.003258 88.769766c-52.806693 0-99.281167 12.526291-138.130987 37.230949-31.381731 19.955494-57.338916 47.537689-77.149101 81.978083-32.629141 56.730049-37.302581 113.579825-37.485753 115.972315l-0.118704 1.558495 0 1.562589c0 22.658046 0 48.338938 7.645121 77.420277 7.67582 29.199019 19.301602 64.87045 48.613184 96.748485l366.375342 395.10364 370.251625-396.666228c34.788318-44.39 43.892673-77.335343 50.850132-119.356388C937.450808 352.566848 936.072415 332.73722 935.23535 325.31211zM846.760297 477.779617 511.832178 833.141114 178.402179 477.498208c-56.964386-76.185146-48.351218-102.897531-48.351218-150.426011 0 0 15.093766-197.370183 211.952296-197.370183 52.571333-1.387603 147.228179 41.571814 171.360809 134.521786-0.481977-1.858324 35.729759-138.828882 171.360809-133.49848 186.229448 7.318686 210.593346 190.898795 209.689766 198.027146C894.414643 328.752466 903.754359 398.765029 846.760297 477.779617z" p-id="4723"></path></svg>