<?xml version="1.0" standalone="no"?><!DOCTYPE svg PUBLIC "-//W3C//DTD SVG 1.1//EN" "http://www.w3.org/Graphics/SVG/1.1/DTD/svg11.dtd"><svg t="1492139280604" class="icon" style="" viewBox="0 0 1024 1024" version="1.1" xmlns="http://www.w3.org/2000/svg" p-id="8591" xmlns:xlink="http://www.w3.org/1999/xlink" width="200" height="200"><defs><style type="text/css"></style></defs><path d="M128 960l0-896 768 0 0 896-384-167.008zM512 760.992l356 156 0-824-712 0 0 824zM676.992 691.008l-164.992-78.016-164.992 78.016 23.008-182.016-124-132.992 178.016-35.008 88-159.008 88 160 178.016 34.016-124 134.016zM512 582.016l130.016 60.992-18.016-143.008 98.016-106.016-140-27.008-70.016-127.008-68.992 127.008-140.992 27.008 98.016 106.016-18.016 143.008z" p-id="8592" fill="#2196F3"></path></svg>